<mxfile host="65bd71144e">
    <diagram id="lxCuO6DBVW09Tj_Unnxz" name="Authentication">
        <mxGraphModel dx="802" dy="378" grid="0" gridSize="10" guides="1" tooltips="1" connect="1" arrows="1" fold="1" page="1" pageScale="1" pageWidth="850" pageHeight="1100" math="0" shadow="0">
            <root>
                <mxCell id="0"/>
                <mxCell id="1" parent="0"/>
                <mxCell id="kdot5zfLDeKO1TMDOAHh-18" value="" style="edgeStyle=orthogonalEdgeStyle;rounded=0;orthogonalLoop=1;jettySize=auto;html=1;fontSize=18;" parent="1" source="kdot5zfLDeKO1TMDOAHh-2" target="kdot5zfLDeKO1TMDOAHh-17" edge="1">
                    <mxGeometry relative="1" as="geometry"/>
                </mxCell>
                <mxCell id="kdot5zfLDeKO1TMDOAHh-2" value="Sign up" style="rounded=0;whiteSpace=wrap;html=1;fontSize=18;fillColor=#1ba1e2;strokeColor=#006EAF;fontColor=#ffffff;" parent="1" vertex="1">
                    <mxGeometry x="50" y="129" width="438" height="60" as="geometry"/>
                </mxCell>
                <mxCell id="kdot5zfLDeKO1TMDOAHh-22" value="" style="edgeStyle=orthogonalEdgeStyle;rounded=0;orthogonalLoop=1;jettySize=auto;html=1;fontSize=18;" parent="1" source="kdot5zfLDeKO1TMDOAHh-17" target="kdot5zfLDeKO1TMDOAHh-21" edge="1">
                    <mxGeometry relative="1" as="geometry"/>
                </mxCell>
                <mxCell id="kdot5zfLDeKO1TMDOAHh-17" value="get user data&amp;nbsp;" style="rounded=0;whiteSpace=wrap;html=1;fontSize=18;" parent="1" vertex="1">
                    <mxGeometry x="50" y="221" width="438" height="60" as="geometry"/>
                </mxCell>
                <mxCell id="kdot5zfLDeKO1TMDOAHh-28" value="" style="edgeStyle=orthogonalEdgeStyle;rounded=0;orthogonalLoop=1;jettySize=auto;html=1;fontFamily=Helvetica;fontSize=18;fontColor=default;" parent="1" source="kdot5zfLDeKO1TMDOAHh-21" target="kdot5zfLDeKO1TMDOAHh-27" edge="1">
                    <mxGeometry relative="1" as="geometry"/>
                </mxCell>
                <mxCell id="kdot5zfLDeKO1TMDOAHh-21" value="encrypt password before saving in db" style="rounded=0;whiteSpace=wrap;html=1;fontSize=18;" parent="1" vertex="1">
                    <mxGeometry x="50" y="310" width="438" height="60" as="geometry"/>
                </mxCell>
                <mxCell id="kdot5zfLDeKO1TMDOAHh-27" value="send token" style="rounded=0;whiteSpace=wrap;html=1;fontSize=18;" parent="1" vertex="1">
                    <mxGeometry x="50" y="404" width="438" height="60" as="geometry"/>
                </mxCell>
                <mxCell id="kdot5zfLDeKO1TMDOAHh-36" value="" style="edgeStyle=orthogonalEdgeStyle;rounded=0;orthogonalLoop=1;jettySize=auto;html=1;fontSize=18;fillColor=#fff2cc;strokeColor=#000000;" parent="1" source="kdot5zfLDeKO1TMDOAHh-37" target="kdot5zfLDeKO1TMDOAHh-39" edge="1">
                    <mxGeometry relative="1" as="geometry"/>
                </mxCell>
                <mxCell id="kdot5zfLDeKO1TMDOAHh-37" value="Log in&amp;nbsp;" style="rounded=0;whiteSpace=wrap;html=1;fontSize=18;fillColor=#1ba1e2;strokeColor=#006EAF;fontColor=#ffffff;" parent="1" vertex="1">
                    <mxGeometry x="50" y="522" width="438" height="60" as="geometry"/>
                </mxCell>
                <mxCell id="kdot5zfLDeKO1TMDOAHh-38" value="" style="edgeStyle=orthogonalEdgeStyle;rounded=0;orthogonalLoop=1;jettySize=auto;html=1;fontSize=18;fillColor=#fff2cc;strokeColor=#000000;" parent="1" source="kdot5zfLDeKO1TMDOAHh-39" target="kdot5zfLDeKO1TMDOAHh-41" edge="1">
                    <mxGeometry relative="1" as="geometry"/>
                </mxCell>
                <mxCell id="kdot5zfLDeKO1TMDOAHh-39" value="check if user exist&amp;nbsp;" style="rounded=0;whiteSpace=wrap;html=1;fontSize=18;" parent="1" vertex="1">
                    <mxGeometry x="50" y="614" width="438" height="60" as="geometry"/>
                </mxCell>
                <mxCell id="kdot5zfLDeKO1TMDOAHh-40" value="" style="edgeStyle=orthogonalEdgeStyle;rounded=0;orthogonalLoop=1;jettySize=auto;html=1;fontFamily=Helvetica;fontSize=18;fontColor=default;fillColor=#fff2cc;strokeColor=#000000;" parent="1" source="kdot5zfLDeKO1TMDOAHh-41" target="kdot5zfLDeKO1TMDOAHh-42" edge="1">
                    <mxGeometry relative="1" as="geometry"/>
                </mxCell>
                <mxCell id="kdot5zfLDeKO1TMDOAHh-41" value="compare password" style="rounded=0;whiteSpace=wrap;html=1;fontSize=18;" parent="1" vertex="1">
                    <mxGeometry x="50" y="703" width="438" height="60" as="geometry"/>
                </mxCell>
                <mxCell id="kdot5zfLDeKO1TMDOAHh-42" value="send token&amp;nbsp;" style="rounded=0;whiteSpace=wrap;html=1;fontSize=18;" parent="1" vertex="1">
                    <mxGeometry x="50" y="797" width="438" height="60" as="geometry"/>
                </mxCell>
                <mxCell id="kdot5zfLDeKO1TMDOAHh-43" value="" style="edgeStyle=orthogonalEdgeStyle;rounded=0;orthogonalLoop=1;jettySize=auto;html=1;fontSize=18;fillColor=#fff2cc;strokeColor=#000000;" parent="1" source="kdot5zfLDeKO1TMDOAHh-44" target="kdot5zfLDeKO1TMDOAHh-46" edge="1">
                    <mxGeometry relative="1" as="geometry"/>
                </mxCell>
                <mxCell id="kdot5zfLDeKO1TMDOAHh-44" value="Protect routes" style="rounded=0;whiteSpace=wrap;html=1;fontSize=18;fillColor=#1ba1e2;strokeColor=#006EAF;fontColor=#ffffff;" parent="1" vertex="1">
                    <mxGeometry x="72" y="1169" width="438" height="60" as="geometry"/>
                </mxCell>
                <mxCell id="kdot5zfLDeKO1TMDOAHh-45" value="" style="edgeStyle=orthogonalEdgeStyle;rounded=0;orthogonalLoop=1;jettySize=auto;html=1;fontSize=18;fillColor=#fff2cc;strokeColor=#000000;" parent="1" source="kdot5zfLDeKO1TMDOAHh-46" target="kdot5zfLDeKO1TMDOAHh-48" edge="1">
                    <mxGeometry relative="1" as="geometry"/>
                </mxCell>
                <mxCell id="kdot5zfLDeKO1TMDOAHh-46" value="verify and decode token" style="rounded=0;whiteSpace=wrap;html=1;fontSize=18;" parent="1" vertex="1">
                    <mxGeometry x="72" y="1261" width="438" height="60" as="geometry"/>
                </mxCell>
                <mxCell id="kdot5zfLDeKO1TMDOAHh-47" value="" style="edgeStyle=orthogonalEdgeStyle;rounded=0;orthogonalLoop=1;jettySize=auto;html=1;fontFamily=Helvetica;fontSize=18;fontColor=default;fillColor=#fff2cc;strokeColor=#000000;" parent="1" source="kdot5zfLDeKO1TMDOAHh-48" target="kdot5zfLDeKO1TMDOAHh-49" edge="1">
                    <mxGeometry relative="1" as="geometry"/>
                </mxCell>
                <mxCell id="kdot5zfLDeKO1TMDOAHh-48" value="check if decoded user exist" style="rounded=0;whiteSpace=wrap;html=1;fontSize=18;" parent="1" vertex="1">
                    <mxGeometry x="72" y="1350" width="438" height="60" as="geometry"/>
                </mxCell>
                <mxCell id="kdot5zfLDeKO1TMDOAHh-49" value="check if password hasn't changed using other device" style="rounded=0;whiteSpace=wrap;html=1;fontSize=18;" parent="1" vertex="1">
                    <mxGeometry x="72" y="1444" width="438" height="60" as="geometry"/>
                </mxCell>
                <mxCell id="kdot5zfLDeKO1TMDOAHh-57" value="" style="edgeStyle=orthogonalEdgeStyle;rounded=0;orthogonalLoop=1;jettySize=auto;html=1;fontSize=18;fillColor=#fff2cc;strokeColor=#000000;" parent="1" source="kdot5zfLDeKO1TMDOAHh-58" target="kdot5zfLDeKO1TMDOAHh-60" edge="1">
                    <mxGeometry relative="1" as="geometry"/>
                </mxCell>
                <mxCell id="kdot5zfLDeKO1TMDOAHh-58" value="Update password" style="rounded=0;whiteSpace=wrap;html=1;fontSize=18;fillColor=#1ba1e2;strokeColor=#006EAF;fontColor=#ffffff;" parent="1" vertex="1">
                    <mxGeometry x="72" y="1571" width="438" height="60" as="geometry"/>
                </mxCell>
                <mxCell id="kdot5zfLDeKO1TMDOAHh-59" value="" style="edgeStyle=orthogonalEdgeStyle;rounded=0;orthogonalLoop=1;jettySize=auto;html=1;fontSize=18;fillColor=#fff2cc;strokeColor=#000000;" parent="1" source="kdot5zfLDeKO1TMDOAHh-60" target="kdot5zfLDeKO1TMDOAHh-62" edge="1">
                    <mxGeometry relative="1" as="geometry"/>
                </mxCell>
                <mxCell id="kdot5zfLDeKO1TMDOAHh-60" value="get old and new password" style="rounded=0;whiteSpace=wrap;html=1;fontSize=18;" parent="1" vertex="1">
                    <mxGeometry x="72" y="1663" width="438" height="60" as="geometry"/>
                </mxCell>
                <mxCell id="kdot5zfLDeKO1TMDOAHh-61" value="" style="edgeStyle=orthogonalEdgeStyle;rounded=0;orthogonalLoop=1;jettySize=auto;html=1;fontFamily=Helvetica;fontSize=18;fontColor=default;fillColor=#fff2cc;strokeColor=#d6b656;" parent="1" source="kdot5zfLDeKO1TMDOAHh-62" target="kdot5zfLDeKO1TMDOAHh-63" edge="1">
                    <mxGeometry relative="1" as="geometry"/>
                </mxCell>
                <mxCell id="S1NJIhTF3uRi_mCzJhoF-3" value="" style="edgeStyle=orthogonalEdgeStyle;rounded=0;orthogonalLoop=1;jettySize=auto;html=1;strokeColor=#000000;" parent="1" source="kdot5zfLDeKO1TMDOAHh-62" target="kdot5zfLDeKO1TMDOAHh-63" edge="1">
                    <mxGeometry relative="1" as="geometry"/>
                </mxCell>
                <mxCell id="kdot5zfLDeKO1TMDOAHh-62" value="compare user's old and encrypted password" style="rounded=0;whiteSpace=wrap;html=1;fontSize=18;" parent="1" vertex="1">
                    <mxGeometry x="72" y="1752" width="438" height="60" as="geometry"/>
                </mxCell>
                <mxCell id="kdot5zfLDeKO1TMDOAHh-63" value="set new password and send new token" style="rounded=0;whiteSpace=wrap;html=1;fontSize=18;" parent="1" vertex="1">
                    <mxGeometry x="72" y="1846" width="438" height="60" as="geometry"/>
                </mxCell>
                <mxCell id="kdot5zfLDeKO1TMDOAHh-64" value="" style="edgeStyle=orthogonalEdgeStyle;rounded=0;orthogonalLoop=1;jettySize=auto;html=1;fontSize=18;fillColor=#fff2cc;strokeColor=#000000;" parent="1" source="kdot5zfLDeKO1TMDOAHh-65" target="kdot5zfLDeKO1TMDOAHh-67" edge="1">
                    <mxGeometry relative="1" as="geometry"/>
                </mxCell>
                <mxCell id="kdot5zfLDeKO1TMDOAHh-65" value="Forget Pasword" style="rounded=0;whiteSpace=wrap;html=1;fontSize=18;fillColor=#fff2cc;strokeColor=#d6b656;" parent="1" vertex="1">
                    <mxGeometry x="50" y="2379" width="438" height="60" as="geometry"/>
                </mxCell>
                <mxCell id="kdot5zfLDeKO1TMDOAHh-66" value="" style="edgeStyle=orthogonalEdgeStyle;rounded=0;orthogonalLoop=1;jettySize=auto;html=1;fontSize=18;fillColor=#fff2cc;strokeColor=#000000;" parent="1" source="kdot5zfLDeKO1TMDOAHh-67" target="kdot5zfLDeKO1TMDOAHh-69" edge="1">
                    <mxGeometry relative="1" as="geometry"/>
                </mxCell>
                <mxCell id="kdot5zfLDeKO1TMDOAHh-67" value="check if user exist" style="rounded=0;whiteSpace=wrap;html=1;fontSize=18;" parent="1" vertex="1">
                    <mxGeometry x="50" y="2471" width="438" height="60" as="geometry"/>
                </mxCell>
                <mxCell id="kdot5zfLDeKO1TMDOAHh-69" value="generate temorary password&amp;nbsp;&lt;br&gt;send unencryped version to user email&lt;br&gt;save enrypted version in databese (limit time)" style="rounded=0;whiteSpace=wrap;html=1;fontSize=18;" parent="1" vertex="1">
                    <mxGeometry x="50" y="2560" width="438" height="73" as="geometry"/>
                </mxCell>
                <mxCell id="kdot5zfLDeKO1TMDOAHh-71" value="encryption: bcrypt.js&lt;br&gt;file upload: multer&lt;br&gt;image editor: sharp" style="whiteSpace=wrap;html=1;rounded=0;fontFamily=Helvetica;fontSize=18;" parent="1" vertex="1">
                    <mxGeometry x="545" y="227" width="245" height="196" as="geometry"/>
                </mxCell>
                <mxCell id="kdot5zfLDeKO1TMDOAHh-73" value="random pwd: node crypto&lt;br&gt;email sending: nodemailer&lt;br&gt;email testing: mail trap" style="whiteSpace=wrap;html=1;rounded=0;fontFamily=Helvetica;fontSize=18;" parent="1" vertex="1">
                    <mxGeometry x="545" y="2394" width="245" height="196" as="geometry"/>
                </mxCell>
                <mxCell id="kdot5zfLDeKO1TMDOAHh-74" value="" style="edgeStyle=orthogonalEdgeStyle;rounded=0;orthogonalLoop=1;jettySize=auto;html=1;fontSize=18;fillColor=#fff2cc;strokeColor=#000000;" parent="1" source="kdot5zfLDeKO1TMDOAHh-75" target="kdot5zfLDeKO1TMDOAHh-77" edge="1">
                    <mxGeometry relative="1" as="geometry"/>
                </mxCell>
                <mxCell id="kdot5zfLDeKO1TMDOAHh-75" value="Resent Password" style="rounded=0;whiteSpace=wrap;html=1;fontSize=18;fillColor=#ffe6cc;strokeColor=#d79b00;" parent="1" vertex="1">
                    <mxGeometry x="50" y="2708" width="438" height="60" as="geometry"/>
                </mxCell>
                <mxCell id="kdot5zfLDeKO1TMDOAHh-76" value="" style="edgeStyle=orthogonalEdgeStyle;rounded=0;orthogonalLoop=1;jettySize=auto;html=1;fontSize=18;fillColor=#fff2cc;strokeColor=#000000;" parent="1" source="kdot5zfLDeKO1TMDOAHh-77" target="kdot5zfLDeKO1TMDOAHh-78" edge="1">
                    <mxGeometry relative="1" as="geometry"/>
                </mxCell>
                <mxCell id="kdot5zfLDeKO1TMDOAHh-77" value="find user based on reset password token" style="rounded=0;whiteSpace=wrap;html=1;fontSize=18;" parent="1" vertex="1">
                    <mxGeometry x="50" y="2800" width="438" height="60" as="geometry"/>
                </mxCell>
                <mxCell id="S1NJIhTF3uRi_mCzJhoF-1" value="" style="edgeStyle=orthogonalEdgeStyle;rounded=0;orthogonalLoop=1;jettySize=auto;html=1;" parent="1" source="kdot5zfLDeKO1TMDOAHh-78" target="kdot5zfLDeKO1TMDOAHh-79" edge="1">
                    <mxGeometry relative="1" as="geometry"/>
                </mxCell>
                <mxCell id="kdot5zfLDeKO1TMDOAHh-78" value="update users password&amp;nbsp;&lt;br&gt;set tepmorary password to null" style="rounded=0;whiteSpace=wrap;html=1;fontSize=18;" parent="1" vertex="1">
                    <mxGeometry x="50" y="2889" width="438" height="73" as="geometry"/>
                </mxCell>
                <mxCell id="kdot5zfLDeKO1TMDOAHh-79" value="send token to user" style="rounded=0;whiteSpace=wrap;html=1;fontSize=18;" parent="1" vertex="1">
                    <mxGeometry x="50" y="2986" width="438" height="73" as="geometry"/>
                </mxCell>
                <mxCell id="S1NJIhTF3uRi_mCzJhoF-4" value="" style="edgeStyle=orthogonalEdgeStyle;rounded=0;orthogonalLoop=1;jettySize=auto;html=1;fontSize=18;fillColor=#fff2cc;strokeColor=#000000;" parent="1" source="S1NJIhTF3uRi_mCzJhoF-5" target="S1NJIhTF3uRi_mCzJhoF-7" edge="1">
                    <mxGeometry relative="1" as="geometry"/>
                </mxCell>
                <mxCell id="S1NJIhTF3uRi_mCzJhoF-5" value="Update user profile" style="rounded=0;whiteSpace=wrap;html=1;fontSize=18;fillColor=#dae8fc;strokeColor=#6c8ebf;" parent="1" vertex="1">
                    <mxGeometry x="38" y="3386" width="438" height="60" as="geometry"/>
                </mxCell>
                <mxCell id="i0ZaenPGTJbmLUqWFvoU-3" value="" style="edgeStyle=orthogonalEdgeStyle;rounded=0;orthogonalLoop=1;jettySize=auto;html=1;" parent="1" source="S1NJIhTF3uRi_mCzJhoF-7" target="i0ZaenPGTJbmLUqWFvoU-1" edge="1">
                    <mxGeometry relative="1" as="geometry"/>
                </mxCell>
                <mxCell id="S1NJIhTF3uRi_mCzJhoF-7" value="set up file upload" style="rounded=0;whiteSpace=wrap;html=1;fontSize=18;" parent="1" vertex="1">
                    <mxGeometry x="38" y="3478" width="438" height="60" as="geometry"/>
                </mxCell>
                <mxCell id="S1NJIhTF3uRi_mCzJhoF-8" value="" style="edgeStyle=orthogonalEdgeStyle;rounded=0;orthogonalLoop=1;jettySize=auto;html=1;" parent="1" source="S1NJIhTF3uRi_mCzJhoF-9" target="S1NJIhTF3uRi_mCzJhoF-10" edge="1">
                    <mxGeometry relative="1" as="geometry"/>
                </mxCell>
                <mxCell id="S1NJIhTF3uRi_mCzJhoF-9" value="&lt;span&gt;make specified fields updatable&lt;/span&gt;" style="rounded=0;whiteSpace=wrap;html=1;fontSize=18;" parent="1" vertex="1">
                    <mxGeometry x="38" y="3676" width="438" height="73" as="geometry"/>
                </mxCell>
                <mxCell id="S1NJIhTF3uRi_mCzJhoF-10" value="update user data&amp;nbsp;" style="rounded=0;whiteSpace=wrap;html=1;fontSize=18;" parent="1" vertex="1">
                    <mxGeometry x="38" y="3773" width="438" height="73" as="geometry"/>
                </mxCell>
                <mxCell id="S1NJIhTF3uRi_mCzJhoF-11" value="file upload : multer&lt;br&gt;cloud file storage: S3 bucket" style="whiteSpace=wrap;html=1;rounded=0;fontFamily=Helvetica;fontSize=18;" parent="1" vertex="1">
                    <mxGeometry x="571" y="3453" width="245" height="196" as="geometry"/>
                </mxCell>
                <mxCell id="i0ZaenPGTJbmLUqWFvoU-2" value="" style="edgeStyle=orthogonalEdgeStyle;rounded=0;orthogonalLoop=1;jettySize=auto;html=1;" parent="1" source="i0ZaenPGTJbmLUqWFvoU-1" target="S1NJIhTF3uRi_mCzJhoF-9" edge="1">
                    <mxGeometry relative="1" as="geometry"/>
                </mxCell>
                <mxCell id="i0ZaenPGTJbmLUqWFvoU-1" value="upload images on cloud" style="rounded=0;whiteSpace=wrap;html=1;fontSize=18;" parent="1" vertex="1">
                    <mxGeometry x="38" y="3580" width="438" height="60" as="geometry"/>
                </mxCell>
                <mxCell id="i0ZaenPGTJbmLUqWFvoU-4" value="" style="edgeStyle=orthogonalEdgeStyle;rounded=0;orthogonalLoop=1;jettySize=auto;html=1;fontSize=18;fillColor=#fff2cc;strokeColor=#000000;" parent="1" source="i0ZaenPGTJbmLUqWFvoU-5" target="i0ZaenPGTJbmLUqWFvoU-7" edge="1">
                    <mxGeometry relative="1" as="geometry"/>
                </mxCell>
                <mxCell id="i0ZaenPGTJbmLUqWFvoU-14" value="" style="edgeStyle=orthogonalEdgeStyle;rounded=0;orthogonalLoop=1;jettySize=auto;html=1;" parent="1" source="i0ZaenPGTJbmLUqWFvoU-5" target="i0ZaenPGTJbmLUqWFvoU-13" edge="1">
                    <mxGeometry relative="1" as="geometry"/>
                </mxCell>
                <mxCell id="i0ZaenPGTJbmLUqWFvoU-5" value="Update Tour data" style="rounded=0;whiteSpace=wrap;html=1;fontSize=18;fillColor=#dae8fc;strokeColor=#6c8ebf;" parent="1" vertex="1">
                    <mxGeometry x="38" y="3913" width="438" height="60" as="geometry"/>
                </mxCell>
                <mxCell id="i0ZaenPGTJbmLUqWFvoU-6" value="" style="edgeStyle=orthogonalEdgeStyle;rounded=0;orthogonalLoop=1;jettySize=auto;html=1;" parent="1" source="i0ZaenPGTJbmLUqWFvoU-7" target="i0ZaenPGTJbmLUqWFvoU-12" edge="1">
                    <mxGeometry relative="1" as="geometry"/>
                </mxCell>
                <mxCell id="i0ZaenPGTJbmLUqWFvoU-7" value="set up file upload" style="rounded=0;whiteSpace=wrap;html=1;fontSize=18;" parent="1" vertex="1">
                    <mxGeometry x="38" y="4005" width="438" height="60" as="geometry"/>
                </mxCell>
                <mxCell id="i0ZaenPGTJbmLUqWFvoU-10" value="update user data&amp;nbsp;" style="rounded=0;whiteSpace=wrap;html=1;fontSize=18;" parent="1" vertex="1">
                    <mxGeometry x="38" y="4207" width="438" height="55" as="geometry"/>
                </mxCell>
                <mxCell id="i0ZaenPGTJbmLUqWFvoU-15" value="" style="edgeStyle=orthogonalEdgeStyle;rounded=0;orthogonalLoop=1;jettySize=auto;html=1;" parent="1" source="i0ZaenPGTJbmLUqWFvoU-12" target="i0ZaenPGTJbmLUqWFvoU-10" edge="1">
                    <mxGeometry relative="1" as="geometry"/>
                </mxCell>
                <mxCell id="i0ZaenPGTJbmLUqWFvoU-12" value="upload images on cloud" style="rounded=0;whiteSpace=wrap;html=1;fontSize=18;" parent="1" vertex="1">
                    <mxGeometry x="38" y="4107" width="438" height="60" as="geometry"/>
                </mxCell>
                <mxCell id="i0ZaenPGTJbmLUqWFvoU-13" value="Access Role: Admin" style="whiteSpace=wrap;html=1;fontSize=18;fillColor=#dae8fc;strokeColor=#6c8ebf;rounded=0;" parent="1" vertex="1">
                    <mxGeometry x="550" y="3913" width="218" height="60" as="geometry"/>
                </mxCell>
                <mxCell id="i0ZaenPGTJbmLUqWFvoU-16" value="" style="edgeStyle=orthogonalEdgeStyle;rounded=0;orthogonalLoop=1;jettySize=auto;html=1;fontSize=18;fillColor=#fff2cc;strokeColor=#000000;" parent="1" source="i0ZaenPGTJbmLUqWFvoU-18" target="i0ZaenPGTJbmLUqWFvoU-20" edge="1">
                    <mxGeometry relative="1" as="geometry"/>
                </mxCell>
                <mxCell id="i0ZaenPGTJbmLUqWFvoU-18" value="Delete my-profile&amp;nbsp;" style="rounded=0;whiteSpace=wrap;html=1;fontSize=18;fillColor=#dae8fc;strokeColor=#6c8ebf;" parent="1" vertex="1">
                    <mxGeometry x="27" y="4450" width="438" height="60" as="geometry"/>
                </mxCell>
                <mxCell id="i0ZaenPGTJbmLUqWFvoU-20" value="visibility: false" style="rounded=0;whiteSpace=wrap;html=1;fontSize=18;" parent="1" vertex="1">
                    <mxGeometry x="27" y="4542" width="438" height="60" as="geometry"/>
                </mxCell>
                <mxCell id="i0ZaenPGTJbmLUqWFvoU-28" value="" style="edgeStyle=orthogonalEdgeStyle;rounded=0;orthogonalLoop=1;jettySize=auto;html=1;fontSize=18;fillColor=#fff2cc;strokeColor=#000000;" parent="1" source="i0ZaenPGTJbmLUqWFvoU-29" target="i0ZaenPGTJbmLUqWFvoU-30" edge="1">
                    <mxGeometry relative="1" as="geometry"/>
                </mxCell>
                <mxCell id="i0ZaenPGTJbmLUqWFvoU-29" value="Delete tour" style="rounded=0;whiteSpace=wrap;html=1;fontSize=18;" parent="1" vertex="1">
                    <mxGeometry x="27" y="4666" width="438" height="60" as="geometry"/>
                </mxCell>
                <mxCell id="i0ZaenPGTJbmLUqWFvoU-30" value="visibility: false" style="rounded=0;whiteSpace=wrap;html=1;fontSize=18;" parent="1" vertex="1">
                    <mxGeometry x="27" y="4758" width="438" height="60" as="geometry"/>
                </mxCell>
                <mxCell id="Om07xkiv6Sem02ryx13h-1" value="" style="edgeStyle=orthogonalEdgeStyle;rounded=0;orthogonalLoop=1;jettySize=auto;html=1;fontSize=18;fillColor=#fff2cc;strokeColor=#000000;" parent="1" source="Om07xkiv6Sem02ryx13h-2" target="Om07xkiv6Sem02ryx13h-3" edge="1">
                    <mxGeometry relative="1" as="geometry"/>
                </mxCell>
                <mxCell id="Om07xkiv6Sem02ryx13h-2" value="GET ALL REVIEWS" style="rounded=0;whiteSpace=wrap;html=1;fontSize=18;fillColor=#dae8fc;strokeColor=#6c8ebf;" parent="1" vertex="1">
                    <mxGeometry x="38" y="5567" width="438" height="60" as="geometry"/>
                </mxCell>
                <mxCell id="Om07xkiv6Sem02ryx13h-3" value="visibility: false" style="rounded=0;whiteSpace=wrap;html=1;fontSize=18;" parent="1" vertex="1">
                    <mxGeometry x="38" y="5659" width="438" height="60" as="geometry"/>
                </mxCell>
            </root>
        </mxGraphModel>
    </diagram>
</mxfile>